<svg display="none" width="0" height="0" version="1.1" xmlns="http://www.w3.org/2000/svg" xmlns:xlink="http://www.w3.org/1999/xlink">
<defs>
<symbol id="icon-ok" viewBox="0 0 1024 1024">
	<title>ok</title>
	<path class="path1" d="M954.857 323.429q0 22.857-16 38.857l-491.429 491.429q-16 16-38.857 16t-38.857-16l-284.571-284.571q-16-16-16-38.857t16-38.857l77.714-77.714q16-16 38.857-16t38.857 16l168 168.571 374.857-375.429q16-16 38.857-16t38.857 16l77.714 77.714q16 16 16 38.857z"></path>
</symbol>
<symbol id="icon-cancel" viewBox="0 0 805 1024">
	<title>cancel</title>
	<path class="path1" d="M741.714 755.429q0 22.857-16 38.857l-77.714 77.714q-16 16-38.857 16t-38.857-16l-168-168-168 168q-16 16-38.857 16t-38.857-16l-77.714-77.714q-16-16-16-38.857t16-38.857l168-168-168-168q-16-16-16-38.857t16-38.857l77.714-77.714q16-16 38.857-16t38.857 16l168 168 168-168q16-16 38.857-16t38.857 16l77.714 77.714q16 16 16 38.857t-16 38.857l-168 168 168 168q16 16 16 38.857z"></path>
</symbol>
<symbol id="icon-settings" viewBox="0 0 1024 1024">
	<title>settings</title>
	<path class="path1" d="M201.143 804.571v73.143h-201.143v-73.143h201.143zM402.286 731.429q14.857 0 25.714 10.857t10.857 25.714v146.286q0 14.857-10.857 25.714t-25.714 10.857h-146.286q-14.857 0-25.714-10.857t-10.857-25.714v-146.286q0-14.857 10.857-25.714t25.714-10.857h146.286zM493.714 512v73.143h-493.714v-73.143h493.714zM128 219.429v73.143h-128v-73.143h128zM877.714 804.571v73.143h-420.571v-73.143h420.571zM329.143 146.286q14.857 0 25.714 10.857t10.857 25.714v146.286q0 14.857-10.857 25.714t-25.714 10.857h-146.286q-14.857 0-25.714-10.857t-10.857-25.714v-146.286q0-14.857 10.857-25.714t25.714-10.857h146.286zM694.857 438.857q14.857 0 25.714 10.857t10.857 25.714v146.286q0 14.857-10.857 25.714t-25.714 10.857h-146.286q-14.857 0-25.714-10.857t-10.857-25.714v-146.286q0-14.857 10.857-25.714t25.714-10.857h146.286zM877.714 512v73.143h-128v-73.143h128zM877.714 219.429v73.143h-493.714v-73.143h493.714z"></path>
</symbol>
</defs>
</svg>
